<svg width="140" height="61" viewBox="0 0 140 61" fill="none" xmlns="http://www.w3.org/2000/svg">
<rect x="0.5" y="0.5" width="139" height="60" fill="#FF2400"/>
<rect x="0.5" y="0.5" width="139" height="60" stroke="#1A1028"/>
<path d="M52.2629 31.1314L29.5658 44.2357V18.0272L52.2629 31.1314Z" fill="#1A1028"/>
<path d="M73.3224 33.4807V31.786H78.0232C78.8033 31.786 79.4288 31.5506 79.8995 31.0799C80.3837 30.6091 80.6258 29.9904 80.6258 29.2238C80.6258 28.4302 80.3837 27.8048 79.8995 27.3475C79.4288 26.8902 78.8033 26.6615 78.0232 26.6615H73.6452V38H71.7084V24.9063H77.9425C78.5881 24.9063 79.1867 25.0004 79.7381 25.1887C80.303 25.3636 80.7939 25.6326 81.2109 25.9957C81.6413 26.3589 81.9708 26.8095 82.1995 27.3475C82.4416 27.8855 82.5626 28.5109 82.5626 29.2238C82.5626 29.9232 82.4416 30.5419 82.1995 31.0799C81.9708 31.6179 81.6413 32.0685 81.2109 32.4316C80.7939 32.7813 80.303 33.0436 79.7381 33.2185C79.1867 33.3933 78.5881 33.4807 77.9425 33.4807H73.3224ZM84.9662 23.8975H86.903V38H84.9662V23.8975ZM93.8264 38.2018C92.9656 38.2018 92.1788 37.9798 91.4659 37.536C90.7531 37.0921 90.1882 36.4801 89.7712 35.7C89.3542 34.9065 89.1458 33.9986 89.1458 32.9764C89.1458 31.9541 89.3542 31.053 89.7712 30.2729C90.2016 29.4793 90.7867 28.8606 91.5264 28.4168C92.2662 27.9594 93.0934 27.7308 94.008 27.7308C95.0168 27.7308 95.7969 27.9662 96.3483 28.4369C96.9132 28.9077 97.3033 29.5398 97.5185 30.3334C97.7472 31.127 97.8615 32.0079 97.8615 32.9764C97.8615 33.5144 97.7942 34.086 97.6597 34.6913C97.5252 35.2965 97.31 35.8681 97.0141 36.4062C96.7182 36.9442 96.308 37.3813 95.7834 37.7175C95.2589 38.0404 94.6065 38.2018 93.8264 38.2018ZM94.3712 36.5272C95.084 36.5272 95.6826 36.3725 96.1668 36.0632C96.6644 35.7404 97.0343 35.31 97.2764 34.772C97.5185 34.234 97.6396 33.6354 97.6396 32.9764C97.6396 32.2635 97.5118 31.6381 97.2562 31.1001C97.0141 30.5621 96.6442 30.1451 96.1466 29.8492C95.6624 29.5533 95.0706 29.4053 94.3712 29.4053C93.322 29.4053 92.5083 29.7416 91.93 30.4141C91.365 31.0866 91.0826 31.9407 91.0826 32.9764C91.0826 33.6758 91.2238 34.2945 91.5063 34.8325C91.7887 35.357 92.1721 35.774 92.6563 36.0834C93.1539 36.3793 93.7256 36.5272 94.3712 36.5272ZM97.6396 27.9325H99.5764V38H97.801C97.801 38 97.7875 37.8789 97.7606 37.6368C97.7337 37.3813 97.7068 37.0787 97.6799 36.729C97.653 36.3793 97.6396 36.0699 97.6396 35.8009V27.9325ZM101.195 27.9325H103.253L107.106 37.5965L105.431 38L101.195 27.9325ZM111.464 27.9325L105.431 42.0351H103.394L105.996 36.5676L109.426 27.9325H111.464Z" fill="white"/>
</svg>
