<svg width="230" height="26" viewBox="0 0 230 26" fill="none" xmlns="http://www.w3.org/2000/svg">
<path d="M0.111838 16.5885H4.24963C4.34904 17.508 4.70939 18.3405 5.33068 19.086C5.97682 19.8067 6.82177 20.3783 7.86554 20.8008C8.93416 21.1984 10.1519 21.3972 11.5187 21.3972C12.7365 21.3972 13.7429 21.2481 14.5382 20.9499C15.3335 20.6517 15.9175 20.2416 16.2902 19.7198C16.6879 19.173 16.8867 18.5393 16.8867 17.8186C16.8867 17.0979 16.6506 16.5387 16.1784 16.1411C15.7311 15.7186 15.0352 15.3707 14.0909 15.0974C13.1465 14.7991 11.9412 14.5133 10.475 14.24C9.25723 14.0163 8.07678 13.7181 6.93361 13.3453C5.79043 12.9725 4.75909 12.5004 3.83958 11.9288C2.94492 11.3572 2.23665 10.6613 1.71477 9.84124C1.19288 8.99628 0.931942 8.00222 0.931942 6.85905C0.931942 5.56676 1.29229 4.39874 2.01299 3.35497C2.75854 2.3112 3.85201 1.4911 5.2934 0.894658C6.73479 0.29822 8.48683 3.19358e-07 10.5495 3.19358e-07C13.7057 3.19358e-07 16.1163 0.733123 17.7813 2.19937C19.4464 3.64076 20.2541 5.60404 20.2044 8.0892H16.1411C16.0666 6.52355 15.495 5.3928 14.4264 4.69695C13.3577 4.00111 12.0033 3.65319 10.3631 3.65319C8.89688 3.65319 7.66673 3.91413 6.67266 4.43601C5.6786 4.9579 5.18157 5.80285 5.18157 6.97088C5.18157 7.46791 5.2934 7.90281 5.51706 8.27559C5.76558 8.62351 6.16321 8.94658 6.70994 9.2448C7.25668 9.51817 8.00223 9.79154 8.94659 10.0649C9.9158 10.3134 11.0963 10.5868 12.4879 10.885C13.6808 11.0838 14.7991 11.3572 15.8429 11.7051C16.8867 12.053 17.7938 12.4879 18.5642 13.0098C19.3594 13.5317 19.9807 14.2027 20.428 15.0228C20.8754 15.8429 21.099 16.8494 21.099 18.0423C21.099 19.4091 20.7511 20.6268 20.0553 21.6955C19.3594 22.7392 18.2908 23.5718 16.8494 24.193C15.4329 24.7895 13.5938 25.0877 11.3323 25.0877C9.61758 25.0877 8.11406 24.8889 6.82177 24.4913C5.55434 24.0688 4.4733 23.5345 3.57864 22.8883C2.68398 22.2173 1.96328 21.4966 1.41655 20.7262C0.894664 19.9558 0.52189 19.2103 0.298226 18.4896C0.0994127 17.7441 0.0372837 17.1103 0.111838 16.5885ZM29.2514 10.6986H46.9955V14.3145H29.2514V10.6986ZM46.399 0.44733H50.6114V24.6031H46.399V0.44733ZM25.4864 0.44733H29.736V24.6031H25.4864V0.44733ZM69.4767 25.0504C66.6436 25.0504 64.1708 24.541 62.0585 23.5221C59.9709 22.5031 58.3431 21.0617 57.1751 19.1979C56.0319 17.334 55.4604 15.1098 55.4604 12.5252C55.4604 9.94064 56.0319 7.71643 57.1751 5.85255C58.3431 3.96383 59.9709 2.52244 62.0585 1.52837C64.1708 0.509458 66.6436 3.19358e-07 69.4767 3.19358e-07C72.3346 3.19358e-07 74.8073 0.509458 76.8949 1.52837C78.9824 2.52244 80.5978 3.96383 81.7409 5.85255C82.909 7.71643 83.493 9.94064 83.493 12.5252C83.493 15.1098 82.909 17.334 81.7409 19.1979C80.5978 21.0617 78.9824 22.5031 76.8949 23.5221C74.8073 24.541 72.3346 25.0504 69.4767 25.0504ZM69.4767 21.3227C71.3654 21.3227 73.0304 20.9996 74.4718 20.3535C75.9132 19.7073 77.044 18.7381 77.8641 17.4458C78.709 16.1287 79.1315 14.4885 79.1315 12.5252C79.1315 10.5868 78.709 8.97143 77.8641 7.67915C77.044 6.36201 75.9132 5.38037 74.4718 4.73423C73.0304 4.06324 71.3654 3.72774 69.4767 3.72774C67.6128 3.72774 65.9477 4.06324 64.4815 4.73423C63.0152 5.38037 61.8596 6.36201 61.0147 7.67915C60.1697 8.97143 59.7473 10.5868 59.7473 12.5252C59.7473 14.4885 60.1697 16.1287 61.0147 17.4458C61.8596 18.7381 63.0152 19.7073 64.4815 20.3535C65.9477 20.9996 67.6128 21.3227 69.4767 21.3227ZM88.3556 24.6031V0.44733H102.633C104.422 0.44733 105.975 0.708272 107.293 1.23015C108.61 1.72719 109.629 2.51001 110.349 3.57863C111.07 4.6224 111.43 5.96439 111.43 7.60459C111.43 8.69806 111.244 9.64243 110.871 10.4377C110.498 11.2081 109.977 11.8418 109.306 12.3388C108.635 12.8359 107.852 13.2211 106.957 13.4944C106.087 13.7678 105.155 13.9418 104.161 14.0163L103.788 13.7554C105.379 13.7802 106.696 13.9293 107.74 14.2027C108.784 14.4512 109.579 14.9358 110.126 15.6565C110.672 16.3524 110.946 17.3837 110.946 18.7505V24.6031H106.733V18.9742C106.733 18.0298 106.559 17.2967 106.212 16.7748C105.888 16.2281 105.317 15.8553 104.497 15.6565C103.702 15.4329 102.558 15.321 101.067 15.321H92.6053V24.6031H88.3556ZM92.6053 11.8542H102.633C104.124 11.8542 105.255 11.4814 106.025 10.7359C106.796 9.99035 107.181 9.00871 107.181 7.79098C107.181 6.62295 106.796 5.7283 106.025 5.10701C105.255 4.46086 104.124 4.13779 102.633 4.13779H92.6053V11.8542ZM114.368 0.44733H137.555V4.10052H114.368V0.44733ZM123.874 3.65319H128.086V24.6031H123.874V3.65319ZM153.982 0.44733V20.9499H169.042V24.6031H149.732V0.44733H153.982ZM174.431 0.44733H178.68V24.6031H174.431V0.44733ZM183.587 16.5885H187.724C187.824 17.508 188.184 18.3405 188.805 19.086C189.452 19.8067 190.297 20.3783 191.34 20.8008C192.409 21.1984 193.627 21.3972 194.994 21.3972C196.211 21.3972 197.218 21.2481 198.013 20.9499C198.808 20.6517 199.392 20.2416 199.765 19.7198C200.163 19.173 200.361 18.5393 200.361 17.8186C200.361 17.0979 200.125 16.5387 199.653 16.1411C199.206 15.7186 198.51 15.3707 197.566 15.0974C196.621 14.7991 195.416 14.5133 193.95 14.24C192.732 14.0163 191.552 13.7181 190.408 13.3453C189.265 12.9725 188.234 12.5004 187.314 11.9288C186.42 11.3572 185.711 10.6613 185.19 9.84124C184.668 8.99628 184.407 8.00222 184.407 6.85905C184.407 5.56676 184.767 4.39874 185.488 3.35497C186.233 2.3112 187.327 1.4911 188.768 0.894658C190.21 0.29822 191.962 3.19358e-07 194.024 3.19358e-07C197.18 3.19358e-07 199.591 0.733123 201.256 2.19937C202.921 3.64076 203.729 5.60404 203.679 8.0892H199.616C199.541 6.52355 198.97 5.3928 197.901 4.69695C196.833 4.00111 195.478 3.65319 193.838 3.65319C192.372 3.65319 191.142 3.91413 190.147 4.43601C189.153 4.9579 188.656 5.80285 188.656 6.97088C188.656 7.46791 188.768 7.90281 188.992 8.27559C189.24 8.62351 189.638 8.94658 190.185 9.2448C190.731 9.51817 191.477 9.79154 192.421 10.0649C193.391 10.3134 194.571 10.5868 195.963 10.885C197.156 11.0838 198.274 11.3572 199.318 11.7051C200.361 12.053 201.269 12.4879 202.039 13.0098C202.834 13.5317 203.455 14.2027 203.903 15.0228C204.35 15.8429 204.574 16.8494 204.574 18.0423C204.574 19.4091 204.226 20.6268 203.53 21.6955C202.834 22.7392 201.766 23.5718 200.324 24.193C198.908 24.7895 197.069 25.0877 194.807 25.0877C193.092 25.0877 191.589 24.8889 190.297 24.4913C189.029 24.0688 187.948 23.5345 187.053 22.8883C186.159 22.2173 185.438 21.4966 184.891 20.7262C184.369 19.9558 183.997 19.2103 183.773 18.4896C183.574 17.7441 183.512 17.1103 183.587 16.5885ZM206.725 0.44733H229.911V4.10052H206.725V0.44733ZM216.23 3.65319H220.443V24.6031H216.23V3.65319Z" fill="black"/>
</svg>
