<svg width="161" height="17" viewBox="0 0 161 17" fill="none" xmlns="http://www.w3.org/2000/svg">
<path d="M0.0479947 10.608H3.28799C3.35199 11.152 3.59999 11.648 4.03199 12.096C4.47999 12.528 5.06399 12.872 5.78399 13.128C6.50399 13.368 7.312 13.488 8.20799 13.488C9.02399 13.488 9.696 13.4 10.224 13.224C10.752 13.048 11.144 12.8 11.4 12.48C11.656 12.16 11.784 11.776 11.784 11.328C11.784 10.896 11.624 10.568 11.304 10.344C10.984 10.104 10.48 9.912 9.792 9.768C9.104 9.608 8.2 9.448 7.08 9.288C6.2 9.16 5.36799 8.984 4.58399 8.76C3.79999 8.52 3.10399 8.216 2.49599 7.848C1.90399 7.48 1.43199 7.032 1.07999 6.504C0.743995 5.96 0.575995 5.32 0.575995 4.584C0.575995 3.672 0.831995 2.872 1.34399 2.184C1.87199 1.496 2.64799 0.959995 3.67199 0.575995C4.69599 0.191996 5.95199 -4.29153e-06 7.43999 -4.29153e-06C9.68 -4.29153e-06 11.4 0.479996 12.6 1.44C13.816 2.384 14.408 3.688 14.376 5.352H11.256C11.192 4.408 10.792 3.728 10.056 3.312C9.336 2.896 8.424 2.688 7.31999 2.688C6.29599 2.688 5.44799 2.84 4.77599 3.144C4.11999 3.448 3.79199 3.968 3.79199 4.704C3.79199 4.992 3.87199 5.248 4.03199 5.472C4.19199 5.68 4.46399 5.864 4.84799 6.024C5.23199 6.184 5.752 6.336 6.408 6.48C7.06399 6.624 7.87999 6.768 8.856 6.912C9.768 7.04 10.592 7.216 11.328 7.44C12.08 7.648 12.72 7.928 13.248 8.28C13.792 8.616 14.208 9.048 14.496 9.576C14.784 10.104 14.928 10.752 14.928 11.52C14.928 12.464 14.68 13.288 14.184 13.992C13.704 14.68 12.952 15.216 11.928 15.6C10.92 15.984 9.608 16.176 7.99199 16.176C6.83999 16.176 5.82399 16.056 4.94399 15.816C4.06399 15.56 3.30399 15.224 2.66399 14.808C2.02399 14.392 1.50399 13.936 1.10399 13.44C0.703995 12.944 0.415995 12.448 0.239995 11.952C0.0799947 11.456 0.0159947 11.008 0.0479947 10.608ZM20.5521 6.72H32.8641V9.384H20.5521V6.72ZM32.3361 0.311996H35.5281V15.84H32.3361V0.311996ZM17.7441 0.311996H20.9361V15.84H17.7441V0.311996ZM48.4528 16.152C46.3888 16.152 44.6208 15.832 43.1488 15.192C41.6928 14.536 40.5728 13.608 39.7888 12.408C39.0208 11.208 38.6368 9.768 38.6368 8.088C38.6368 6.392 39.0208 4.944 39.7888 3.744C40.5728 2.544 41.6928 1.624 43.1488 0.983996C44.6208 0.327996 46.3888 -4.29153e-06 48.4528 -4.29153e-06C50.5328 -4.29153e-06 52.3008 0.327996 53.7568 0.983996C55.2128 1.624 56.3248 2.544 57.0928 3.744C57.8768 4.944 58.2688 6.392 58.2688 8.088C58.2688 9.768 57.8768 11.208 57.0928 12.408C56.3248 13.608 55.2128 14.536 53.7568 15.192C52.3008 15.832 50.5328 16.152 48.4528 16.152ZM48.4528 13.392C49.7328 13.392 50.8528 13.2 51.8128 12.816C52.7888 12.432 53.5488 11.848 54.0928 11.064C54.6528 10.28 54.9328 9.288 54.9328 8.088C54.9328 6.888 54.6528 5.896 54.0928 5.112C53.5488 4.328 52.7888 3.744 51.8128 3.36C50.8528 2.96 49.7328 2.76 48.4528 2.76C47.1888 2.76 46.0608 2.96 45.0688 3.36C44.0768 3.744 43.3008 4.328 42.7408 5.112C42.1808 5.896 41.9008 6.888 41.9008 8.088C41.9008 9.288 42.1808 10.28 42.7408 11.064C43.3008 11.848 44.0768 12.432 45.0688 12.816C46.0608 13.2 47.1888 13.392 48.4528 13.392ZM61.3847 15.84V0.311996H71.9207C73.1207 0.311996 74.1607 0.479996 75.0407 0.815995C75.9367 1.136 76.6327 1.648 77.1287 2.352C77.6247 3.04 77.8727 3.928 77.8727 5.016C77.8727 5.752 77.7447 6.376 77.4887 6.888C77.2327 7.4 76.8727 7.816 76.4087 8.136C75.9607 8.456 75.4407 8.704 74.8487 8.88C74.2567 9.04 73.6247 9.144 72.9527 9.192L72.6167 9C73.7367 9.016 74.6567 9.112 75.3767 9.288C76.0967 9.448 76.6327 9.752 76.9847 10.2C77.3527 10.632 77.5367 11.28 77.5367 12.144V15.84H74.3447V12.36C74.3447 11.768 74.2407 11.312 74.0327 10.992C73.8247 10.656 73.4487 10.424 72.9047 10.296C72.3767 10.168 71.6087 10.104 70.6007 10.104H64.5767V15.84H61.3847ZM64.5767 7.608H71.9207C72.8167 7.608 73.4967 7.392 73.9607 6.96C74.4407 6.528 74.6807 5.944 74.6807 5.208C74.6807 4.504 74.4407 3.968 73.9607 3.6C73.4967 3.232 72.8167 3.048 71.9207 3.048H64.5767V7.608ZM79.8448 0.311996H96.2128V2.976H79.8448V0.311996ZM86.4448 2.64H89.6368V15.84H86.4448V2.64ZM107.514 0.311996V13.176H117.834V15.84H104.322V0.311996H107.514ZM121.255 0.311996H124.447V15.84H121.255V0.311996ZM127.548 10.608H130.788C130.852 11.152 131.1 11.648 131.532 12.096C131.98 12.528 132.564 12.872 133.284 13.128C134.004 13.368 134.812 13.488 135.708 13.488C136.524 13.488 137.196 13.4 137.724 13.224C138.252 13.048 138.644 12.8 138.9 12.48C139.156 12.16 139.284 11.776 139.284 11.328C139.284 10.896 139.124 10.568 138.804 10.344C138.484 10.104 137.98 9.912 137.292 9.768C136.604 9.608 135.7 9.448 134.58 9.288C133.7 9.16 132.868 8.984 132.084 8.76C131.3 8.52 130.604 8.216 129.996 7.848C129.404 7.48 128.932 7.032 128.58 6.504C128.244 5.96 128.076 5.32 128.076 4.584C128.076 3.672 128.332 2.872 128.844 2.184C129.372 1.496 130.148 0.959995 131.172 0.575995C132.196 0.191996 133.452 -4.29153e-06 134.94 -4.29153e-06C137.18 -4.29153e-06 138.9 0.479996 140.1 1.44C141.316 2.384 141.908 3.688 141.876 5.352H138.756C138.692 4.408 138.292 3.728 137.556 3.312C136.836 2.896 135.924 2.688 134.82 2.688C133.796 2.688 132.948 2.84 132.276 3.144C131.62 3.448 131.292 3.968 131.292 4.704C131.292 4.992 131.372 5.248 131.532 5.472C131.692 5.68 131.964 5.864 132.348 6.024C132.732 6.184 133.252 6.336 133.908 6.48C134.564 6.624 135.38 6.768 136.356 6.912C137.268 7.04 138.092 7.216 138.828 7.44C139.58 7.648 140.22 7.928 140.748 8.28C141.292 8.616 141.708 9.048 141.996 9.576C142.284 10.104 142.428 10.752 142.428 11.52C142.428 12.464 142.18 13.288 141.684 13.992C141.204 14.68 140.452 15.216 139.428 15.6C138.42 15.984 137.108 16.176 135.492 16.176C134.34 16.176 133.324 16.056 132.444 15.816C131.564 15.56 130.804 15.224 130.164 14.808C129.524 14.392 129.004 13.936 128.604 13.44C128.204 12.944 127.916 12.448 127.74 11.952C127.58 11.456 127.516 11.008 127.548 10.608ZM143.876 0.311996H160.244V2.976H143.876V0.311996ZM150.476 2.64H153.668V15.84H150.476V2.64Z" fill="#F3F2EE"/>
</svg>
