<svg width="213" height="103" viewBox="0 0 213 103" fill="none" xmlns="http://www.w3.org/2000/svg">
<g filter="url(#filter0_d_77_546)">
<rect x="8.94727" width="194.579" height="84.7368" rx="17.8947" fill="#FF2400" shape-rendering="crispEdges"/>
<path d="M45.9112 46.1546H49.6355C49.725 46.9822 50.0493 47.7316 50.6085 48.4026C51.1901 49.0513 51.9506 49.5658 52.8901 49.946C53.8519 50.3039 54.948 50.4829 56.1783 50.4829C57.2743 50.4829 58.1802 50.3487 58.896 50.0803C59.6118 49.8118 60.1375 49.4428 60.473 48.973C60.8309 48.4809 61.0098 47.9105 61.0098 47.2618C61.0098 46.6131 60.7973 46.1099 60.3723 45.752C59.9697 45.3717 59.3434 45.0585 58.4934 44.8125C57.6434 44.5441 56.5585 44.2868 55.2388 44.0408C54.1427 43.8395 53.0802 43.571 52.0513 43.2355C51.0223 42.9 50.0941 42.475 49.2664 41.9605C48.4612 41.446 47.8237 40.8197 47.3539 40.0816C46.8842 39.321 46.6493 38.4263 46.6493 37.3974C46.6493 36.2342 46.9737 35.1829 47.6223 34.2434C48.2934 33.3039 49.2776 32.5658 50.575 32.0289C51.8723 31.4921 53.4493 31.2237 55.3059 31.2237C58.1467 31.2237 60.3164 31.8835 61.8151 33.2033C63.3138 34.5006 64.0408 36.2677 63.996 38.5046H60.3388C60.2717 37.0954 59.7572 36.0776 58.7954 35.4513C57.8335 34.825 56.6144 34.5118 55.1381 34.5118C53.8184 34.5118 52.7112 34.7467 51.8164 35.2164C50.9217 35.6862 50.4743 36.4467 50.4743 37.498C50.4743 37.9454 50.575 38.3368 50.7763 38.6724C51 38.9855 51.3579 39.2763 51.85 39.5447C52.3421 39.7908 53.0131 40.0368 53.8631 40.2829C54.7355 40.5066 55.798 40.7526 57.0506 41.021C58.1243 41.2 59.1309 41.446 60.0704 41.7592C61.0098 42.0724 61.8263 42.4638 62.5197 42.9335C63.2355 43.4033 63.7947 44.0072 64.1973 44.7454C64.6 45.4835 64.8013 46.3895 64.8013 47.4631C64.8013 48.6934 64.4881 49.7895 63.8618 50.7513C63.2355 51.6908 62.2737 52.4401 60.9763 52.9993C59.7013 53.5362 58.046 53.8046 56.0105 53.8046C54.4671 53.8046 53.1138 53.6256 51.9506 53.2678C50.8098 52.8875 49.8368 52.4066 49.0316 51.825C48.2263 51.221 47.5776 50.5724 47.0855 49.8789C46.6158 49.1855 46.2802 48.5145 46.0789 47.8658C45.9 47.1947 45.8441 46.6243 45.9112 46.1546ZM85.6273 53.3684H81.9029V36.6592H85.6273V53.3684ZM82.1042 45.4164L82.1378 46.4901C82.093 46.7809 81.9924 47.2171 81.8358 47.7987C81.7016 48.3803 81.4667 49.0178 81.1312 49.7112C80.818 50.3822 80.393 51.0309 79.8562 51.6572C79.3417 52.2612 78.693 52.7645 77.9101 53.1671C77.1273 53.5474 76.1766 53.7375 75.0582 53.7375C74.2529 53.7375 73.4365 53.6256 72.6088 53.402C71.8036 53.2006 71.0654 52.8539 70.3944 52.3618C69.7457 51.8697 69.22 51.1987 68.8174 50.3487C68.4148 49.4987 68.2134 48.425 68.2134 47.1276V36.6592H71.9378V46.423C71.9378 47.4743 72.1055 48.302 72.4411 48.9059C72.799 49.4875 73.2911 49.9013 73.9174 50.1474C74.5437 50.3934 75.2707 50.5164 76.0983 50.5164C77.2838 50.5164 78.2904 50.248 79.118 49.7112C79.9457 49.1743 80.6055 48.5145 81.0976 47.7316C81.6121 46.9263 81.9476 46.1546 82.1042 45.4164ZM101.115 53.7375C99.7284 53.7375 98.554 53.4691 97.5922 52.9322C96.6527 52.373 95.8922 51.6572 95.3106 50.7849C94.7514 49.9125 94.3376 48.973 94.0691 47.9664C93.8231 46.9375 93.7001 45.9645 93.7001 45.0474C93.7001 43.8171 93.8231 42.6763 94.0691 41.625C94.3152 40.5737 94.7178 39.6566 95.277 38.8737C95.8586 38.0684 96.6191 37.4421 97.5586 36.9947C98.5205 36.525 99.706 36.2901 101.115 36.2901C102.726 36.2901 104.146 36.6592 105.376 37.3974C106.629 38.1355 107.613 39.1645 108.329 40.4842C109.067 41.7816 109.436 43.3026 109.436 45.0474C109.436 46.7474 109.067 48.2572 108.329 49.577C107.591 50.8743 106.595 51.8921 105.343 52.6303C104.09 53.3684 102.681 53.7375 101.115 53.7375ZM99.9744 50.6506C101.115 50.6506 102.099 50.4158 102.927 49.946C103.777 49.4763 104.437 48.8164 104.907 47.9664C105.376 47.1164 105.611 46.1434 105.611 45.0474C105.611 43.3697 105.119 42.0053 104.135 40.9539C103.151 39.8803 101.764 39.3434 99.9744 39.3434C98.7441 39.3434 97.6816 39.5783 96.7869 40.048C95.9145 40.5177 95.2435 41.1776 94.7737 42.0276C94.3264 42.8552 94.1027 43.8618 94.1027 45.0474C94.1027 46.121 94.3264 47.0829 94.7737 47.9329C95.2435 48.7829 95.9145 49.4539 96.7869 49.946C97.6593 50.4158 98.7218 50.6506 99.9744 50.6506ZM94.1027 29.9487V49.4092C94.1027 50.0131 94.0691 50.6954 94.002 51.4559C93.9349 52.2164 93.8678 52.8539 93.8007 53.3684H90.3448V29.9487H94.1027ZM112.71 36.6592H116.434V53.3684H112.71V36.6592ZM123.48 36.2901C124.442 36.2901 125.326 36.4243 126.131 36.6928C126.959 36.9612 127.663 37.375 128.245 37.9342C128.849 38.471 129.307 39.1421 129.621 39.9474C129.956 40.7526 130.124 41.7033 130.124 42.7993V53.3684H126.399V43.5375C126.399 42.173 126.064 41.1664 125.393 40.5177C124.744 39.8467 123.715 39.5112 122.306 39.5112C121.232 39.5112 120.248 39.746 119.353 40.2158C118.481 40.6631 117.765 41.2559 117.206 41.9941C116.647 42.7099 116.322 43.5039 116.233 44.3763L116.199 42.5645C116.311 41.7368 116.557 40.9539 116.938 40.2158C117.318 39.4552 117.821 38.7842 118.447 38.2026C119.074 37.5987 119.812 37.1289 120.662 36.7934C121.512 36.4579 122.451 36.2901 123.48 36.2901ZM136.801 36.2901C137.785 36.2901 138.68 36.4243 139.485 36.6928C140.29 36.9612 140.984 37.375 141.565 37.9342C142.169 38.471 142.639 39.1421 142.974 39.9474C143.31 40.7526 143.478 41.7033 143.478 42.7993V53.3684H139.72V43.5375C139.72 42.173 139.384 41.1664 138.713 40.5177C138.065 39.8467 137.036 39.5112 135.626 39.5112C134.553 39.5112 133.569 39.746 132.674 40.2158C131.801 40.6631 131.086 41.2559 130.526 41.9941C129.99 42.7099 129.676 43.5039 129.587 44.3763L129.52 42.4974C129.632 41.6921 129.889 40.9204 130.292 40.1822C130.694 39.4217 131.209 38.7506 131.835 38.1691C132.461 37.5875 133.188 37.1289 134.016 36.7934C134.866 36.4579 135.794 36.2901 136.801 36.2901ZM151.935 29.5796V33.1697H147.473V29.5796H151.935ZM147.808 36.6592H151.566V53.3684H147.808V36.6592ZM154.853 36.6592H166.663V39.7125H154.853V36.6592ZM158.879 32.1631H162.637V53.3684H158.879V32.1631Z" fill="white"/>
</g>
<defs>
<filter id="filter0_d_77_546" x="-0.000102997" y="0" width="212.474" height="102.632" filterUnits="userSpaceOnUse" color-interpolation-filters="sRGB">
<feFlood flood-opacity="0" result="BackgroundImageFix"/>
<feColorMatrix in="SourceAlpha" type="matrix" values="0 0 0 0 0 0 0 0 0 0 0 0 0 0 0 0 0 0 127 0" result="hardAlpha"/>
<feOffset dy="8.94737"/>
<feGaussianBlur stdDeviation="4.47368"/>
<feComposite in2="hardAlpha" operator="out"/>
<feColorMatrix type="matrix" values="0 0 0 0 0 0 0 0 0 0 0 0 0 0 0 0 0 0 0.25 0"/>
<feBlend mode="normal" in2="BackgroundImageFix" result="effect1_dropShadow_77_546"/>
<feBlend mode="normal" in="SourceGraphic" in2="effect1_dropShadow_77_546" result="shape"/>
</filter>
</defs>
</svg>
