<svg width="183" height="58" viewBox="0 0 183 58" fill="none" xmlns="http://www.w3.org/2000/svg">
<g filter="url(#filter0_d_238_2472)">
<rect x="3.22936" width="176" height="50.8624" rx="4.0367" fill="#F3F4F6"/>
</g>
<path d="M45.211 25.4312L19.7798 39.0651L19.7798 11.7973L45.211 25.4312Z" fill="black"/>
<path d="M55.5553 31.1468L51.3732 20.6837H53.3754L56.9277 29.8873H56.3465L59.7373 20.6837H61.8202L65.211 29.8873H64.6298L68.1821 20.6837H70.152L66.0184 31.1468H63.8547L60.5123 21.9593H61.0613L57.7028 31.1468H55.5553ZM72.0543 28.6925V27.1262H78.2869V28.6925H72.0543ZM69.6322 31.1468L74.2018 20.6837H76.1717L80.7735 31.1468H78.7875L74.7831 21.7009H75.5904L71.6021 31.1468H69.6322ZM80.1813 20.6837H90.2246V22.2661H80.1813V20.6837ZM84.2987 22.0723H86.1233V31.1468H84.2987V22.0723ZM102.002 27.4815C101.894 28.2888 101.609 28.9831 101.146 29.5644C100.683 30.1349 100.064 30.5763 99.2894 30.8884C98.5251 31.1898 97.6316 31.3406 96.609 31.3406C95.7263 31.3406 94.9136 31.2221 94.1708 30.9853C93.4388 30.7485 92.7983 30.404 92.2494 29.9519C91.7111 29.4891 91.2913 28.9239 90.9899 28.2565C90.6993 27.5783 90.5539 26.8033 90.5539 25.9314C90.5539 25.0487 90.6993 24.2736 90.9899 23.6062C91.2913 22.9388 91.7111 22.3737 92.2494 21.9108C92.7983 21.4372 93.4388 21.082 94.1708 20.8451C94.9136 20.6083 95.7263 20.4899 96.609 20.4899C97.6424 20.4899 98.5412 20.646 99.3055 20.9582C100.081 21.2703 100.7 21.7171 101.162 22.2983C101.625 22.8796 101.905 23.5793 102.002 24.3974H100.226C100.075 23.913 99.8383 23.504 99.5154 23.1703C99.1925 22.8258 98.7834 22.5621 98.2883 22.3791C97.8038 22.1961 97.2441 22.1046 96.609 22.1046C95.8124 22.1046 95.0966 22.2553 94.4615 22.5567C93.8264 22.8473 93.3258 23.2779 92.9598 23.8484C92.6046 24.4082 92.427 25.1025 92.427 25.9314C92.427 26.7495 92.6046 27.4438 92.9598 28.0143C93.3258 28.5741 93.8264 28.9993 94.4615 29.2899C95.0966 29.5806 95.8124 29.7259 96.609 29.7259C97.2441 29.7259 97.8038 29.6398 98.2883 29.4675C98.7727 29.2845 99.1763 29.0262 99.4993 28.6925C99.8222 28.348 100.059 27.9443 100.21 27.4815H102.002ZM105.74 25.124H113.425V26.6903H105.74V25.124ZM113.167 20.6837H114.992V31.1468H113.167V20.6837ZM104.109 20.6837H105.95V31.1468H104.109V20.6837ZM130.405 20.6837V22.2661H123.074V25.3017H129.081V26.8194H123.074V31.1468H121.233V20.6837H130.405ZM132.452 20.6837H134.292V31.1468H132.452V20.6837ZM138.953 20.6837V29.5644H145.476V31.1468H137.112V20.6837H138.953ZM154.866 30.1941H154.043L159.597 20.6837H161.422V31.1468H159.597V23.3156L160.017 23.4286L155.464 31.1468H153.461L148.908 23.4609L149.344 23.3317V31.1468H147.503V20.6837H149.344L154.866 30.1941Z" fill="black"/>
<defs>
<filter id="filter0_d_238_2472" x="9.53674e-07" y="0" width="182.459" height="57.3211" filterUnits="userSpaceOnUse" color-interpolation-filters="sRGB">
<feFlood flood-opacity="0" result="BackgroundImageFix"/>
<feColorMatrix in="SourceAlpha" type="matrix" values="0 0 0 0 0 0 0 0 0 0 0 0 0 0 0 0 0 0 127 0" result="hardAlpha"/>
<feOffset dy="3.22936"/>
<feGaussianBlur stdDeviation="1.61468"/>
<feComposite in2="hardAlpha" operator="out"/>
<feColorMatrix type="matrix" values="0 0 0 0 0 0 0 0 0 0 0 0 0 0 0 0 0 0 0.25 0"/>
<feBlend mode="normal" in2="BackgroundImageFix" result="effect1_dropShadow_238_2472"/>
<feBlend mode="normal" in="SourceGraphic" in2="effect1_dropShadow_238_2472" result="shape"/>
</filter>
</defs>
</svg>
