<svg width="306" height="103" viewBox="0 0 306 103" fill="none" xmlns="http://www.w3.org/2000/svg">
<g filter="url(#filter0_d_77_546)">
<rect x="8.94727" width="287.579" height="84.7368" rx="17.8947" fill="#FF2400" shape-rendering="crispEdges"/>
<path d="M54.5677 53.3684L45.4079 31.6599H50.3401L58.0908 50.8855L56.648 50.9191L64.0296 31.6599H69.1631L76.5447 50.9191L75.1019 50.8855L82.8526 31.6599H87.6842L78.625 53.3684H73.1559L65.9085 34.5454H67.3177L60.0368 53.3684H54.5677ZM96.2862 53.7375C94.631 53.7375 93.1211 53.3796 91.7566 52.6638C90.4145 51.9256 89.3408 50.9079 88.5356 49.6105C87.7527 48.2908 87.3612 46.7697 87.3612 45.0474C87.3612 43.2802 87.7639 41.748 88.5691 40.4506C89.3744 39.1533 90.4593 38.1467 91.8237 37.4309C93.2106 36.6927 94.7764 36.3237 96.5211 36.3237C98.4448 36.3237 99.9882 36.7151 101.151 37.498C102.337 38.2585 103.198 39.2987 103.735 40.6184C104.272 41.9381 104.54 43.4145 104.54 45.0474C104.54 46.0316 104.384 47.0381 104.07 48.0671C103.757 49.0737 103.276 50.0131 102.628 50.8855C101.979 51.7355 101.129 52.4289 100.078 52.9658C99.0264 53.4803 97.7626 53.7375 96.2862 53.7375ZM97.6955 50.3822C99.0152 50.3822 100.156 50.1585 101.118 49.7112C102.08 49.2638 102.818 48.6375 103.332 47.8322C103.847 47.027 104.104 46.0987 104.104 45.0474C104.104 43.9066 103.836 42.9447 103.299 42.1618C102.784 41.3566 102.046 40.7526 101.084 40.35C100.145 39.925 99.0152 39.7125 97.6955 39.7125C95.8389 39.7125 94.3961 40.2046 93.3672 41.1888C92.3382 42.1506 91.8237 43.4368 91.8237 45.0474C91.8237 46.121 92.0698 47.0605 92.5619 47.8658C93.054 48.6487 93.7362 49.2638 94.6086 49.7112C95.5033 50.1585 96.5323 50.3822 97.6955 50.3822ZM104.104 36.6928H108.466V53.3684H104.406C104.406 53.3684 104.372 53.1559 104.305 52.7309C104.261 52.2835 104.216 51.7243 104.171 51.0533C104.126 50.3822 104.104 49.7224 104.104 49.0737V36.6928ZM111.239 36.6928H124.19V40.0816H111.239V36.6928ZM115.534 32.1296H119.896V53.3684H115.534V32.1296ZM146.528 46.7921C146.417 48.246 145.947 49.4987 145.119 50.55C144.314 51.6013 143.196 52.4066 141.764 52.9658C140.332 53.5026 138.632 53.771 136.664 53.771C134.606 53.771 132.761 53.4467 131.128 52.798C129.517 52.127 128.242 51.1539 127.303 49.8789C126.386 48.5816 125.927 46.9822 125.927 45.0809C125.927 43.1796 126.386 41.5802 127.303 40.2829C128.242 38.9855 129.517 38.0013 131.128 37.3302C132.761 36.6592 134.606 36.3237 136.664 36.3237C138.632 36.3237 140.321 36.6033 141.73 37.1625C143.14 37.6993 144.247 38.4822 145.052 39.5112C145.88 40.5401 146.361 41.7816 146.495 43.2355H142.502C142.122 42.1171 141.417 41.2447 140.388 40.6184C139.359 39.9921 138.118 39.6789 136.664 39.6789C135.501 39.6789 134.438 39.8802 133.476 40.2829C132.537 40.6855 131.776 41.2895 131.195 42.0947C130.636 42.8776 130.356 43.873 130.356 45.0809C130.356 46.2664 130.636 47.2618 131.195 48.0671C131.754 48.85 132.515 49.4428 133.476 49.8454C134.438 50.2256 135.501 50.4158 136.664 50.4158C138.23 50.4158 139.505 50.1026 140.489 49.4763C141.496 48.85 142.178 47.9553 142.536 46.7921H146.528ZM164.967 53.3684V44.2085C164.967 43.2914 164.811 42.5309 164.497 41.927C164.184 41.323 163.681 40.8645 162.988 40.5513C162.317 40.2381 161.411 40.0816 160.27 40.0816C159.174 40.0816 158.178 40.2941 157.284 40.7191C156.389 41.1217 155.662 41.6585 155.103 42.3296C154.543 42.9783 154.23 43.6717 154.163 44.4099L154.13 42.5645C154.242 41.8263 154.499 41.0881 154.901 40.35C155.304 39.6118 155.841 38.9408 156.512 38.3368C157.183 37.7329 157.988 37.252 158.928 36.8941C159.89 36.5138 160.963 36.3237 162.149 36.3237C163.178 36.3237 164.128 36.4579 165.001 36.7263C165.873 36.9724 166.634 37.3638 167.282 37.9006C167.931 38.4375 168.434 39.1085 168.792 39.9138C169.15 40.6967 169.329 41.625 169.329 42.6987V53.3684H164.967ZM150.036 53.3684V29.9822H154.398V53.3684H150.036ZM203.129 31.6599V35.3842H186.419V41.2224H200.109V44.7118H186.419V53.3684H181.957V31.6599H203.129ZM211.255 29.3783V33.2033H206.189V29.3783H211.255ZM206.524 36.6928H210.886V53.3684H206.524V36.6928ZM215.57 29.9822H219.931V53.3684H215.57V29.9822ZM224.343 36.6928H228.705V53.3684H224.343V36.6928ZM236.456 36.3237C237.484 36.3237 238.435 36.4579 239.307 36.7263C240.18 36.9947 240.94 37.4085 241.589 37.9677C242.238 38.527 242.741 39.2427 243.099 40.1151C243.457 40.9651 243.636 41.9829 243.636 43.1684V53.3684H239.274V43.9401C239.274 42.5309 238.927 41.502 238.234 40.8533C237.563 40.1822 236.456 39.8467 234.912 39.8467C233.749 39.8467 232.698 40.0704 231.758 40.5177C230.819 40.9651 230.058 41.5355 229.477 42.2289C228.895 42.9 228.559 43.6046 228.47 44.3427L228.436 42.6316C228.548 41.8487 228.806 41.0881 229.208 40.35C229.611 39.6118 230.148 38.9408 230.819 38.3368C231.512 37.7105 232.329 37.2184 233.268 36.8605C234.207 36.5026 235.27 36.3237 236.456 36.3237ZM250.984 36.3237C252.013 36.3237 252.963 36.4579 253.836 36.7263C254.708 36.9947 255.469 37.4085 256.117 37.9677C256.766 38.527 257.269 39.2427 257.627 40.1151C258.007 40.9651 258.198 41.9829 258.198 43.1684V53.3684H253.836V43.9401C253.836 42.5309 253.489 41.502 252.796 40.8533C252.102 40.1822 250.984 39.8467 249.44 39.8467C248.277 39.8467 247.226 40.0704 246.286 40.5177C245.347 40.9651 244.586 41.5355 244.005 42.2289C243.423 42.9 243.099 43.6046 243.032 44.3427L242.965 42.5309C243.077 41.7928 243.345 41.0546 243.77 40.3164C244.195 39.5783 244.754 38.9072 245.448 38.3033C246.141 37.6993 246.946 37.2184 247.863 36.8605C248.803 36.5026 249.843 36.3237 250.984 36.3237Z" fill="white"/>
</g>
<defs>
<filter id="filter0_d_77_546" x="-0.000102997" y="0" width="305.474" height="102.632" filterUnits="userSpaceOnUse" color-interpolation-filters="sRGB">
<feFlood flood-opacity="0" result="BackgroundImageFix"/>
<feColorMatrix in="SourceAlpha" type="matrix" values="0 0 0 0 0 0 0 0 0 0 0 0 0 0 0 0 0 0 127 0" result="hardAlpha"/>
<feOffset dy="8.94737"/>
<feGaussianBlur stdDeviation="4.47368"/>
<feComposite in2="hardAlpha" operator="out"/>
<feColorMatrix type="matrix" values="0 0 0 0 0 0 0 0 0 0 0 0 0 0 0 0 0 0 0.25 0"/>
<feBlend mode="normal" in2="BackgroundImageFix" result="effect1_dropShadow_77_546"/>
<feBlend mode="normal" in="SourceGraphic" in2="effect1_dropShadow_77_546" result="shape"/>
</filter>
</defs>
</svg>
