<svg width="183" height="58" viewBox="0 0 183 58" fill="none" xmlns="http://www.w3.org/2000/svg">
<g filter="url(#filter0_d_77_541)">
<rect x="3.22949" width="176" height="50.8624" rx="4.0367" fill="#FF2400"/>
</g>
<path d="M45.2109 25.4311L19.7797 39.065L19.7797 11.7972L45.2109 25.4311Z" fill="black"/>
<path d="M55.5552 31.1467L51.3732 20.6836H53.3754L56.9277 29.8873H56.3464L59.7372 20.6836H61.8201L65.211 29.8873H64.6297L68.182 20.6836H70.1519L66.0183 31.1467H63.8546L60.5123 21.9592H61.0612L57.7027 31.1467H55.5552ZM72.0542 28.6924V27.1262H78.2868V28.6924H72.0542ZM69.6322 31.1467L74.2017 20.6836H76.1716L80.7734 31.1467H78.7874L74.783 21.7009H75.5903L71.6021 31.1467H69.6322ZM80.1812 20.6836H90.2245V22.266H80.1812V20.6836ZM84.2986 22.0722H86.1232V31.1467H84.2986V22.0722ZM102.002 27.4814C101.894 28.2887 101.609 28.9831 101.146 29.5643C100.683 30.1349 100.064 30.5762 99.2893 30.8884C98.525 31.1898 97.6315 31.3405 96.6089 31.3405C95.7262 31.3405 94.9135 31.2221 94.1707 30.9853C93.4388 30.7484 92.7983 30.404 92.2493 29.9519C91.711 29.489 91.2912 28.9239 90.9898 28.2565C90.6992 27.5783 90.5539 26.8032 90.5539 25.9313C90.5539 25.0486 90.6992 24.2736 90.9898 23.6062C91.2912 22.9388 91.711 22.3736 92.2493 21.9108C92.7983 21.4371 93.4388 21.0819 94.1707 20.8451C94.9135 20.6083 95.7262 20.4898 96.6089 20.4898C97.6423 20.4898 98.5411 20.6459 99.3054 20.9581C100.08 21.2703 100.699 21.717 101.162 22.2983C101.625 22.8796 101.905 23.5793 102.002 24.3974H100.226C100.075 23.913 99.8383 23.5039 99.5153 23.1702C99.1924 22.8257 98.7833 22.562 98.2882 22.379C97.8038 22.196 97.244 22.1045 96.6089 22.1045C95.8123 22.1045 95.0965 22.2552 94.4614 22.5566C93.8263 22.8473 93.3257 23.2779 92.9597 23.8484C92.6045 24.4081 92.4269 25.1024 92.4269 25.9313C92.4269 26.7494 92.6045 27.4437 92.9597 28.0143C93.3257 28.574 93.8263 28.9992 94.4614 29.2898C95.0965 29.5805 95.8123 29.7258 96.6089 29.7258C97.244 29.7258 97.8038 29.6397 98.2882 29.4675C98.7726 29.2845 99.1762 29.0261 99.4992 28.6924C99.8221 28.348 100.059 27.9443 100.21 27.4814H102.002ZM105.74 25.124H113.425V26.6902H105.74V25.124ZM113.167 20.6836H114.992V31.1467H113.167V20.6836ZM104.109 20.6836H105.949V31.1467H104.109V20.6836ZM130.405 20.6836V22.266H123.074V25.3016H129.08V26.8194H123.074V31.1467H121.233V20.6836H130.405ZM132.452 20.6836H134.292V31.1467H132.452V20.6836ZM138.953 20.6836V29.5643H145.476V31.1467H137.112V20.6836H138.953ZM154.866 30.1941H154.043L159.597 20.6836H161.422V31.1467H159.597V23.3155L160.017 23.4286L155.464 31.1467H153.461L148.908 23.4609L149.344 23.3317V31.1467H147.503V20.6836H149.344L154.866 30.1941Z" fill="white"/>
<defs>
<filter id="filter0_d_77_541" x="0.000134468" y="0" width="182.459" height="57.321" filterUnits="userSpaceOnUse" color-interpolation-filters="sRGB">
<feFlood flood-opacity="0" result="BackgroundImageFix"/>
<feColorMatrix in="SourceAlpha" type="matrix" values="0 0 0 0 0 0 0 0 0 0 0 0 0 0 0 0 0 0 127 0" result="hardAlpha"/>
<feOffset dy="3.22936"/>
<feGaussianBlur stdDeviation="1.61468"/>
<feComposite in2="hardAlpha" operator="out"/>
<feColorMatrix type="matrix" values="0 0 0 0 0 0 0 0 0 0 0 0 0 0 0 0 0 0 0.25 0"/>
<feBlend mode="normal" in2="BackgroundImageFix" result="effect1_dropShadow_77_541"/>
<feBlend mode="normal" in="SourceGraphic" in2="effect1_dropShadow_77_541" result="shape"/>
</filter>
</defs>
</svg>
